<svg width="64" height="64" viewBox="0 0 64 64" fill="none" xmlns="http://www.w3.org/2000/svg">
<rect width="64" height="64" fill="white"/>
<path d="M15.3125 20.6406C15.2917 20.7969 15.2708 21.0469 15.25 21.3906C15.2292 21.724 15.1979 22.1094 15.1562 22.5469C15.125 22.9844 15.0938 23.4531 15.0625 23.9531C15.0312 24.4427 14.9948 24.9219 14.9531 25.3906C14.9219 25.849 14.8854 26.2708 14.8438 26.6562C14.8125 27.0417 14.7865 27.349 14.7656 27.5781L15.5625 26.7656L17.7812 24.0156C18.0521 23.6719 18.3229 23.3385 18.5938 23.0156C18.8646 22.6823 19.1042 22.3854 19.3125 22.125C19.5312 21.8542 19.7083 21.6302 19.8438 21.4531C19.9792 21.276 20.0573 21.1771 20.0781 21.1562L27.0156 20.5781C27.0365 20.5677 27.0833 20.5625 27.1562 20.5625H27.2812C27.5208 20.5625 27.6406 20.625 27.6406 20.75C27.6406 20.8229 27.6042 20.9115 27.5312 21.0156C27.4688 21.1094 27.3698 21.2344 27.2344 21.3906C27.0677 21.5885 26.8229 21.875 26.5 22.25C26.1875 22.6146 25.8438 23.0208 25.4688 23.4688C25.0938 23.9062 24.7031 24.3646 24.2969 24.8438C23.901 25.3125 23.5312 25.75 23.1875 26.1562C22.8438 26.5521 22.5469 26.8958 22.2969 27.1875C22.0573 27.4792 21.9062 27.6667 21.8438 27.75L20.8594 28.6875C20.1927 29.3229 19.3385 30.1146 18.2969 31.0625C18.6198 31.3958 18.9635 31.7604 19.3281 32.1562C19.7031 32.5417 20.0573 32.9167 20.3906 33.2812C20.7344 33.6354 21.0417 33.9583 21.3125 34.25C21.5938 34.5417 21.8021 34.7604 21.9375 34.9062L26.7656 40.5C26.8177 40.5625 26.8854 40.6146 26.9688 40.6562C27.0521 40.6979 27.1354 40.7344 27.2188 40.7656C27.3021 40.7969 27.3698 40.8333 27.4219 40.875C27.4844 40.9062 27.5156 40.9479 27.5156 41C27.5156 41.0625 27.4479 41.1615 27.3125 41.2969C27.2292 41.3802 27.0729 41.5052 26.8438 41.6719C26.6146 41.8281 26.3438 42 26.0312 42.1875C25.7292 42.375 25.401 42.5677 25.0469 42.7656C24.6927 42.9635 24.349 43.1406 24.0156 43.2969C23.6927 43.4635 23.3906 43.599 23.1094 43.7031C22.8385 43.8073 22.6302 43.8594 22.4844 43.8594C22.2656 43.8594 22.0365 43.7604 21.7969 43.5625C21.5573 43.375 21.2708 43.0885 20.9375 42.7031C20.6042 42.3073 20.2083 41.8073 19.75 41.2031C19.2917 40.599 18.7396 39.8906 18.0938 39.0781C17.7188 38.6094 17.3542 38.151 17 37.7031C16.6458 37.2448 16.3125 36.8177 16 36.4219C15.6875 36.0156 15.401 35.6562 15.1406 35.3438C14.8906 35.0208 14.6823 34.7604 14.5156 34.5625C14.4323 34.6458 14.3438 34.7292 14.25 34.8125C14.1562 34.8854 14.0677 34.9635 13.9844 35.0469L13.4375 41.75C13.4271 41.8438 13.4062 41.9375 13.375 42.0312C13.3542 42.125 13.2865 42.1927 13.1719 42.2344L8.75 43.8281C8.63542 43.8698 8.48438 43.9219 8.29688 43.9844C8.10938 44.0469 7.92708 44.0781 7.75 44.0781C7.59375 44.0781 7.46354 44.0365 7.35938 43.9531C7.25521 43.8698 7.20312 43.7188 7.20312 43.5C7.25521 42.8854 7.31771 42.0885 7.39062 41.1094C7.47396 40.1302 7.55729 39.0156 7.64062 37.7656C7.73438 36.5052 7.82812 35.1354 7.92188 33.6562C8.02604 32.1667 8.13542 30.6042 8.25 28.9688L8.6875 22.3906C8.69792 22.2031 8.70833 22.0469 8.71875 21.9219C8.72917 21.7969 8.74479 21.6927 8.76562 21.6094C8.78646 21.526 8.82292 21.4635 8.875 21.4219C8.92708 21.3802 9.00521 21.349 9.10938 21.3281L14.5156 20.0312C14.651 19.9896 14.7917 19.9688 14.9375 19.9688C15.0833 19.9688 15.1823 20.0156 15.2344 20.1094C15.2865 20.1927 15.3125 20.3698 15.3125 20.6406ZM51.2969 21.7969C51.349 21.6094 51.4062 21.4583 51.4688 21.3438C51.5312 21.2188 51.6719 21.1302 51.8906 21.0781L56.5 20.0156C56.5208 20.0156 56.5469 20.0104 56.5781 20C56.6094 19.9896 56.6354 19.9844 56.6562 19.9844C56.8021 19.9844 56.901 20.0469 56.9531 20.1719C57.0156 20.2969 57.0469 20.4167 57.0469 20.5312C57.0469 20.5521 57.0417 20.5938 57.0312 20.6562C57.0312 20.7188 57.026 20.7604 57.0156 20.7812L50.5469 40.4375C50.3802 40.8646 50.2396 41.2135 50.125 41.4844C50.0208 41.7448 49.9115 41.9635 49.7969 42.1406C49.6927 42.3073 49.5677 42.4479 49.4219 42.5625C49.2865 42.6771 49.099 42.7917 48.8594 42.9062C48.6302 43.0208 48.3385 43.151 47.9844 43.2969C47.6302 43.4531 47.1823 43.6615 46.6406 43.9219C46.4531 44.0156 46.3073 44.0625 46.2031 44.0625C46.0365 44.0625 45.9115 44 45.8281 43.875C45.7448 43.75 45.6771 43.6094 45.625 43.4531L42.9531 33.9375L39.6094 40.8281C39.5573 40.9531 39.4375 41.1198 39.25 41.3281C39.0625 41.5365 38.849 41.75 38.6094 41.9688C38.3802 42.1875 38.1458 42.401 37.9062 42.6094C37.6771 42.8073 37.4896 42.9688 37.3438 43.0938C37.2083 43.2083 37.0625 43.3229 36.9062 43.4375C36.7604 43.5521 36.6094 43.6562 36.4531 43.75C36.2969 43.8438 36.1458 43.9167 36 43.9688C35.8646 44.0312 35.7344 44.0625 35.6094 44.0625C35.3385 44.0625 35.1615 43.9115 35.0781 43.6094L29.0156 22.2344C28.9948 22.151 28.9688 22.0677 28.9375 21.9844C28.9167 21.901 28.9062 21.8229 28.9062 21.75C28.9062 21.4896 28.9688 21.2708 29.0938 21.0938C29.2188 20.9167 29.4375 20.7656 29.75 20.6406C30.0625 20.5156 30.4792 20.4167 31 20.3438C31.5208 20.2604 32.1823 20.1927 32.9844 20.1406C33.3594 20.0885 33.6719 20.0521 33.9219 20.0312C34.1823 20.0104 34.401 20 34.5781 20C34.8802 20 35.0781 20.0469 35.1719 20.1406C35.2656 20.2344 35.349 20.3906 35.4219 20.6094L38.6406 33L41.3125 28.4062L40.2344 23.7031C40.1719 23.4531 40.1458 23.2656 40.1562 23.1406C40.1562 22.901 40.2188 22.7083 40.3438 22.5625C40.4688 22.4167 40.6771 22.2969 40.9688 22.2031C41.2604 22.1094 41.6406 22.026 42.1094 21.9531C42.5885 21.8802 43.1719 21.7969 43.8594 21.7031C44.1615 21.6615 44.4219 21.6302 44.6406 21.6094C44.8594 21.5885 45.0469 21.5781 45.2031 21.5781C45.5156 21.5781 45.7292 21.625 45.8438 21.7188C45.9583 21.8125 46.0417 21.9635 46.0938 22.1719L48.2188 31.7969L51.2969 21.7969Z" fill="black"/>
<line x1="5" y1="12" x2="59" y2="12" stroke="black" stroke-width="4"/>
<line x1="5" y1="52" x2="59" y2="52" stroke="black" stroke-width="4"/>
</svg>
