<svg width="64" height="64" viewBox="0 0 64 64" fill="none" xmlns="http://www.w3.org/2000/svg">
<rect width="64" height="64" fill="url(#paint0_linear_1_2)"/>
<path d="M5.00365 17.6096C4.91687 17.2903 6.3777 17.1306 9.38616 17.1306C12.7128 17.1306 14.4195 17.4064 14.5063 17.9579C14.5063 17.9579 21.7201 38.6854 22.371 36.7669C23.0218 34.8485 21.232 17.7402 21.232 17.7402C21.3766 17.3048 22.5048 17.0871 24.6165 17.0871C26.7282 17.0871 27.8563 17.2903 28.001 17.6966C28.001 17.6966 35.3657 38.6854 35.9578 36.7669C36.5499 34.8485 35.0304 17.8708 35.0304 17.8708C35.0882 17.5515 35.7535 17.3338 37.0263 17.2177C38.2992 17.1016 39.9227 17 40.7037 17C43.7411 17 44.6198 17.2467 44.533 17.6531C44.533 17.6531 43.5314 46.215 43.4157 46.6504C43.3 47.0858 42.4755 47.405 40.9424 47.6082C39.4092 47.8114 38.1654 47.913 37.2108 47.913C33.6237 47.913 31.7435 47.5066 31.5699 46.6939L28.5 37.4472L25.4083 46.6504C25.2926 47.1728 24.2802 47.5502 22.371 47.7824C21.3874 47.8695 20.4039 47.913 19.4204 47.913L16.6433 47.7824C14.7341 47.5792 13.7217 47.2164 13.6059 46.6939L5.00365 17.6096Z" fill="white"/>
<path d="M43.9887 28.9733L49.2824 17.8272C49.4849 17.4208 50.642 17.2176 52.7537 17.2176C56.601 17.2176 58.626 17.5514 58.8284 18.219C58.8284 18.2771 58.814 18.3351 58.7851 18.3932L51.235 32.0646L60 44.2121C60 44.2701 59.7252 44.5168 59.1756 44.9522C57.8449 46.1133 56.2828 47.0276 54.4893 47.6952C53.9397 47.8984 53.3901 48 52.8405 48L51.7991 47.9129C50.8734 47.6807 50.1502 47.0857 49.6295 46.1278L43.8397 36.7669L43.9887 28.9733Z" fill="white"/>
<defs>
<linearGradient id="paint0_linear_1_2" x1="27.5" y1="30.5" x2="46" y2="74.5" gradientUnits="userSpaceOnUse">
<stop stop-color="#A21CAF"/>
<stop offset="1" stop-color="#4F46E5"/>
</linearGradient>
</defs>
</svg>
